<?xml version="1.0" encoding="utf-8"?>
<!-- Generator: Adobe Illustrator 27.10.0, SVG Export Plug-In . SVG Version: 6.00 Build 0)  -->
<svg version="1.1" id="Ebene_1" xmlns="http://www.w3.org/2000/svg" xmlns:xlink="http://www.w3.org/1999/xlink" x="0px" y="0px"
	 viewBox="0 0 236.3 105.9" style="enable-background:new 0 0 236.3 105.9;" xml:space="preserve">
<style type="text/css">
	.st0{fill:#F1C6A3;}
</style>
<path class="st0" d="M114.3,60.1c0,3.3-2.7,6.1-6.1,6c-3.3,0-6.1-2.7-6-6.1c0-3.3,2.7-6,6-6c3.2-0.1,6,2.4,6.1,5.7
	C114.3,59.8,114.3,60,114.3,60.1z M105,60.1c-0.1,1.7,1.2,3.3,2.9,3.4c1.7,0.1,3.3-1.2,3.4-2.9c0-0.2,0-0.3,0-0.5
	c0.1-1.8-1.3-3.4-3.1-3.4c0,0,0,0,0,0c-1.8,0-3.2,1.5-3.2,3.2C105,59.9,105,60,105,60.1z"/>
<path class="st0" d="M127.8,60.1c0,3.3-2.7,6.1-6.1,6c-3.3,0-6.1-2.7-6-6.1c0-3.3,2.7-6,6-6c3.2-0.1,6,2.4,6.1,5.7
	C127.8,59.8,127.8,60,127.8,60.1z M118.6,60.1c-0.1,1.7,1.2,3.3,2.9,3.4c1.7,0.1,3.3-1.2,3.4-2.9c0-0.2,0-0.3,0-0.5
	c0.1-1.8-1.3-3.4-3.1-3.4c0,0,0,0,0,0c-1.8,0-3.2,1.5-3.2,3.2C118.6,59.9,118.6,60,118.6,60.1z"/>
<path class="st0" d="M133.6,51v3.3h3.2v2.5h-3.2v5c-0.1,0.8,0.4,1.5,1.2,1.6c0.1,0,0.2,0,0.3,0c0.5,0,1-0.1,1.4-0.4l0.8,2.5
	c-0.8,0.3-1.6,0.5-2.4,0.5c-2.5,0.1-4.2-1.3-4.2-4.3v-5h-2.2v-2.5h2.2v-3L133.6,51z"/>
<path class="st0" d="M153.8,63.8c-1.7,1.6-3.9,2.5-6.3,2.5c-6.1,0-8.7-4.2-8.8-8.5c0-4.3,2.8-8.7,8.8-8.7c2.3,0,4.5,0.9,6.1,2.5
	l-2.1,2c-1.1-1-2.5-1.6-4-1.6c-3-0.2-5.5,2.1-5.7,5.1c0,0.2,0,0.4,0,0.6c-0.2,2.9,2.1,5.4,5,5.6c0.2,0,0.5,0,0.7,0
	c1.5,0,3-0.6,4.2-1.7L153.8,63.8z"/>
<path class="st0" d="M164.1,54.3h2.8v11.6h-2.7l-0.1-1.7c-0.8,1.3-2.2,2.1-3.8,2.1c-3.4,0-6-2.1-6-6.2c0-4,2.7-6.1,6.1-6.1
	c1.5-0.1,2.9,0.7,3.7,1.9L164.1,54.3z M157.1,60.1c-0.1,1.8,1.3,3.4,3.1,3.5c0.1,0,0.2,0,0.3,0c4.5,0,4.5-7.1,0-7.1
	c-1.8-0.1-3.4,1.3-3.5,3.2C157.1,59.8,157.1,60,157.1,60.1L157.1,60.1z"/>
<path class="st0" d="M177,65.9v-6.2c0-1.5-0.8-2.9-2.4-2.9c-1.5,0.1-2.6,1.4-2.5,2.8c0,0,0,0.1,0,0.1v6.2h-2.9V54.2h2.7l0.2,1.4
	c0.6-1.1,1.8-1.7,3.1-1.6c1.5-0.1,2.9,0.8,3.4,2.2c0.8-1.4,2.3-2.2,3.9-2.1c3.3,0,4.9,2,4.9,5.5v6.3h-2.9v-6.3
	c0-1.5-0.6-2.8-2.2-2.8c-1.5,0.1-2.6,1.3-2.5,2.8c0,0,0,0.1,0,0.1v6.2H177z"/>
<path class="st0" d="M190.2,70.8V54.3h2.7l0.2,1.6c0.9-1.2,2.3-1.9,3.8-1.9c3.2-0.1,5.9,2.5,6,5.7c0,0.1,0,0.3,0,0.4
	c0,3.4-2.2,6.1-5.9,6.1c-1.2,0-3-0.4-3.9-1.7v6.2H190.2z M200,60.1c0-1.8-1.5-3.3-3.3-3.3s-3.3,1.5-3.3,3.3s1.5,3.3,3.3,3.3
	S200,61.9,200,60.1z"/>
<path class="st0" d="M81.4,17.8l-22,9.1c6.3,0.1,10.9,3,11.3,9.6c0.2,3-1.4,5.9-4.2,7.1c4.2,1,6,5.3,6.2,7.6
	c0.5,7.9-5.3,10.8-12.7,11.3l-16.9,1L42.3,51l6.6-0.4l0.4,6.3l10.3-0.6c2.7-0.2,6.6-1.3,6.4-4.7c-0.2-3.2-4.2-4.6-7-4.5l-6.9,0.4
	l0,0l-12.9,0.8l-0.4-5.9l9.5-0.6l0,0l10.3-0.6c4.2-0.3,5.5-2.1,5.4-4.2c-0.1-1.6-1.6-4.3-5.9-4l-10.3,0.6l0.3,5.3l-6.6,0.4l-0.3-5
	l-22.6,9.4c-0.9,0.4-1.3,1.3-0.9,2.2c0.1,0.3,0.3,0.5,0.5,0.7l26.9,20.6l26.9,20.6c0.7,0.6,1.8,0.4,2.4-0.3c0.2-0.2,0.3-0.5,0.3-0.8
	l4.4-33.6l4.4-33.6c0.1-0.9-0.5-1.8-1.4-1.9C81.9,17.6,81.6,17.7,81.4,17.8z"/>
<path class="st0" d="M98.1,57.4c1.3-0.5,2.2-1.8,2.1-3.2c0-3.3-2.4-4.8-5.7-4.8h-7.8v5.3h3.1v-2.5h4.8c2,0,2.6,1.3,2.6,2
	c0,0.9-0.6,1.8-2.6,1.8h-4.8v0h-4.4v2.7h6v0h3.2c1.3,0,3.1,0.8,3.1,2.3c0,1.6-1.8,2-3.1,2h-4.8v-2.9h-3.1v5.8h7.8
	c3.4,0,6.2-1.2,6.2-4.9C100.7,59.4,99.6,57.9,98.1,57.4z"/>
<path class="st0" d="M109.1,41.4c0.1,3.2-1.9,6.4-6.3,6.4h-5V35.1h5c3.3-0.2,6.1,2.3,6.3,5.6C109.1,40.9,109.1,41.2,109.1,41.4z
	 M100.1,45.5h2.6c2.1,0.1,3.9-1.5,4-3.5c0-0.2,0-0.4,0-0.6c0.1-2.1-1.5-3.8-3.6-3.9c-0.1,0-0.3,0-0.4,0h-2.6V45.5z"/>
<path class="st0" d="M117.7,38.9h2.1v8.9h-2.1l-0.1-1.3c-0.6,1-1.7,1.6-2.9,1.6c-2.6,0-4.6-1.6-4.6-4.7c-0.2-2.4,1.6-4.5,4-4.7
	c0.2,0,0.4,0,0.7,0c1.1,0,2.2,0.5,2.8,1.4L117.7,38.9z M112.4,43.3c-0.1,1.4,1,2.6,2.4,2.7c0.1,0,0.2,0,0.3,0c3.5,0,3.5-5.4,0-5.4
	c-1.4-0.1-2.6,1-2.6,2.4C112.4,43.2,112.4,43.2,112.4,43.3z"/>
<path class="st0" d="M127.6,41.2c-0.6-0.6-1.4-0.8-2.2-0.8c-1.1,0-1.6,0.3-1.6,0.9c0,0.6,0.5,0.9,1.7,1c1.7,0.1,3.8,0.5,3.8,2.9
	c0,1.6-1.3,2.9-3.8,2.9c-1.5,0.1-3.1-0.5-4.1-1.6l1.1-1.6c0.8,0.8,1.9,1.2,3.1,1.2c0.8,0,1.6-0.4,1.6-1.1c0-0.6-0.5-0.9-1.8-0.9
	c-1.7-0.1-3.7-0.7-3.7-2.8c0-2.1,2.1-2.8,3.8-2.8c1.3-0.1,2.5,0.3,3.5,1.2L127.6,41.2z"/>
</svg>
